<svg width="1600" height="980" viewBox="0 0 1600 980" fill="none" xmlns="http://www.w3.org/2000/svg">
<rect width="1600" height="980" fill="#F8FAFC"/>
<rect x="104" y="80" width="1392" height="820" rx="30" fill="white" stroke="#CBD5E1" stroke-width="2"/>
<text x="154" y="138" fill="#0F172A" font-family="Inter, Arial, sans-serif" font-size="28" font-weight="700">Team onboarding wizard</text>
<text x="154" y="172" fill="#64748B" font-family="Inter, Arial, sans-serif" font-size="18">Account setup, workspace details, team preferences, and a live review summary.</text>
<rect x="154" y="180" width="1190" height="72" rx="22" fill="#F1F5F9"/>
<circle cx="248" cy="216" r="22" fill="#06B6D4"/>
<text x="241" y="222" fill="#F8FAFC" font-family="Inter, Arial, sans-serif" font-size="13" font-weight="700">1</text>
<circle cx="544" cy="216" r="22" fill="#CBD5E1"/>
<text x="537" y="222" fill="#475569" font-family="Inter, Arial, sans-serif" font-size="13" font-weight="700">2</text>
<circle cx="840" cy="216" r="22" fill="#CBD5E1"/>
<text x="833" y="222" fill="#475569" font-family="Inter, Arial, sans-serif" font-size="13" font-weight="700">3</text>
<circle cx="1136" cy="216" r="22" fill="#CBD5E1"/>
<text x="1129" y="222" fill="#475569" font-family="Inter, Arial, sans-serif" font-size="13" font-weight="700">4</text>
<line x1="272" y1="216" x2="520" y2="216" stroke="#67E8F9" stroke-width="4"/>
<line x1="568" y1="216" x2="816" y2="216" stroke="#CBD5E1" stroke-width="4"/>
<line x1="864" y1="216" x2="1112" y2="216" stroke="#CBD5E1" stroke-width="4"/>
<text x="214" y="246" fill="#0E7490" font-family="Inter, Arial, sans-serif" font-size="12" font-weight="700">Account</text>
<text x="504" y="246" fill="#64748B" font-family="Inter, Arial, sans-serif" font-size="12" font-weight="700">Workspace</text>
<text x="806" y="246" fill="#64748B" font-family="Inter, Arial, sans-serif" font-size="12" font-weight="700">Preferences</text>
<text x="1124" y="246" fill="#64748B" font-family="Inter, Arial, sans-serif" font-size="12" font-weight="700">Review</text>
<rect x="154" y="286" width="860" height="496" rx="24" fill="#F8FAFC" stroke="#E2E8F0" stroke-width="2"/>
<rect x="1054" y="286" width="392" height="496" rx="24" fill="#0F172A"/>
<text x="198" y="336" fill="#0F172A" font-family="Inter, Arial, sans-serif" font-size="22" font-weight="700">Create your workspace account</text>
<text x="198" y="366" fill="#64748B" font-family="Inter, Arial, sans-serif" font-size="15">Use your work email. We&apos;ll validate the company domain before inviting teammates.</text>
<text x="198" y="420" fill="#475569" font-family="Inter, Arial, sans-serif" font-size="14" font-weight="600">Work email</text>
<rect x="198" y="436" width="352" height="56" rx="16" fill="#FFFFFF" stroke="#CBD5E1" stroke-width="2"/>
<text x="226" y="470" fill="#0F172A" font-family="Inter, Arial, sans-serif" font-size="15">maya.chen@northstar.app</text>
<text x="198" y="506" fill="#16A34A" font-family="Inter, Arial, sans-serif" font-size="12" font-weight="700">Verified corporate domain · SSO available</text>
<text x="578" y="420" fill="#475569" font-family="Inter, Arial, sans-serif" font-size="14" font-weight="600">Team size</text>
<rect x="578" y="436" width="352" height="56" rx="16" fill="#FFFFFF" stroke="#CBD5E1" stroke-width="2"/>
<text x="606" y="470" fill="#0F172A" font-family="Inter, Arial, sans-serif" font-size="15">11–50 employees</text>
<text x="578" y="506" fill="#64748B" font-family="Inter, Arial, sans-serif" font-size="12">Estimated 18 editor seats based on imported teammates</text>
<text x="198" y="528" fill="#475569" font-family="Inter, Arial, sans-serif" font-size="14" font-weight="600">Workspace name</text>
<rect x="198" y="544" width="732" height="56" rx="16" fill="#FFFFFF" stroke="#CBD5E1" stroke-width="2"/>
<text x="226" y="578" fill="#0F172A" font-family="Inter, Arial, sans-serif" font-size="15">Northstar Product</text>
<text x="198" y="618" fill="#64748B" font-family="Inter, Arial, sans-serif" font-size="12">URL preview: northstar-product.workspace.app</text>
<text x="198" y="636" fill="#475569" font-family="Inter, Arial, sans-serif" font-size="14" font-weight="600">Plan options</text>
<rect x="198" y="652" width="226" height="56" rx="16" fill="#E0F2FE" stroke="#06B6D4" stroke-width="2"/>
<text x="232" y="677" fill="#0E7490" font-family="Inter, Arial, sans-serif" font-size="13" font-weight="700">Team plan</text>
<text x="232" y="697" fill="#0E7490" font-family="Inter, Arial, sans-serif" font-size="12">SSO, roles, audit log</text>
<rect x="448" y="652" width="226" height="56" rx="16" fill="#FFFFFF" stroke="#CBD5E1" stroke-width="2"/>
<text x="482" y="677" fill="#0F172A" font-family="Inter, Arial, sans-serif" font-size="13" font-weight="700">Starter</text>
<text x="482" y="697" fill="#64748B" font-family="Inter, Arial, sans-serif" font-size="12">Basic collaboration</text>
<rect x="698" y="652" width="232" height="56" rx="16" fill="#FFFFFF" stroke="#CBD5E1" stroke-width="2"/>
<text x="732" y="677" fill="#0F172A" font-family="Inter, Arial, sans-serif" font-size="13" font-weight="700">Enterprise</text>
<text x="732" y="697" fill="#64748B" font-family="Inter, Arial, sans-serif" font-size="12">SCIM, advanced compliance</text>
<text x="1088" y="336" fill="#F8FAFC" font-family="Inter, Arial, sans-serif" font-size="22" font-weight="700">Review summary</text>
<text x="1088" y="366" fill="#94A3B8" font-family="Inter, Arial, sans-serif" font-size="14">Your answers update live as you move through the wizard.</text>
<rect x="1088" y="400" width="324" height="184" rx="20" fill="#111827"/>
<text x="1122" y="444" fill="#94A3B8" font-family="Inter, Arial, sans-serif" font-size="13" font-weight="600">Workspace</text>
<text x="1260" y="444" fill="#F8FAFC" font-family="Inter, Arial, sans-serif" font-size="13">Northstar Product</text>
<text x="1122" y="486" fill="#94A3B8" font-family="Inter, Arial, sans-serif" font-size="13" font-weight="600">Owner</text>
<text x="1260" y="486" fill="#F8FAFC" font-family="Inter, Arial, sans-serif" font-size="13">Maya Chen</text>
<text x="1122" y="528" fill="#94A3B8" font-family="Inter, Arial, sans-serif" font-size="13" font-weight="600">Plan</text>
<text x="1260" y="528" fill="#F8FAFC" font-family="Inter, Arial, sans-serif" font-size="13">Team plan</text>
<text x="1122" y="570" fill="#94A3B8" font-family="Inter, Arial, sans-serif" font-size="13" font-weight="600">Validation</text>
<rect x="1250" y="552" width="96" height="26" rx="13" fill="#DCFCE7"/>
<text x="1274" y="569" fill="#166534" font-family="Inter, Arial, sans-serif" font-size="12" font-weight="700">Domain ok</text>
<rect x="1088" y="600" width="324" height="116" rx="20" fill="#111827" stroke="#334155" stroke-width="2"/>
<text x="1122" y="636" fill="#CBD5E1" font-family="Inter, Arial, sans-serif" font-size="14" font-weight="700">Imported teammates</text>
<text x="1122" y="668" fill="#F8FAFC" font-family="Inter, Arial, sans-serif" font-size="13">Luis Gomez · Frontend platform · Editor</text>
<text x="1122" y="694" fill="#F8FAFC" font-family="Inter, Arial, sans-serif" font-size="13">Priya Patel · Support ops · Admin</text>
<rect x="1088" y="732" width="324" height="84" rx="18" fill="#172554"/>
<text x="1122" y="768" fill="#DBEAFE" font-family="Inter, Arial, sans-serif" font-size="13" font-weight="700">Next step preview</text>
<text x="1122" y="796" fill="#CBD5E1" font-family="Inter, Arial, sans-serif" font-size="13">We&apos;ll ask for default region, invite flow, and notification preferences.</text>
<rect x="154" y="818" width="1292" height="50" rx="18" fill="#F1F5F9"/>
<text x="190" y="850" fill="#64748B" font-family="Inter, Arial, sans-serif" font-size="14">Step 1 of 4 · account details autosaved as draft</text>
<rect x="1116" y="829" width="126" height="28" rx="14" fill="#E2E8F0"/>
<text x="1156" y="848" fill="#334155" font-family="Inter, Arial, sans-serif" font-size="13" font-weight="700">Cancel</text>
<rect x="1262" y="829" width="140" height="28" rx="14" fill="#06B6D4"/>
<text x="1304" y="848" fill="#F8FAFC" font-family="Inter, Arial, sans-serif" font-size="13" font-weight="700">Continue</text>
</svg>
