<svg width="1600" height="1000" viewBox="0 0 1600 1000" fill="none" xmlns="http://www.w3.org/2000/svg">
<rect width="1600" height="1000" fill="#F8FAFC"/>
<text x="118" y="70" fill="#0F172A" font-family="Inter, Arial, sans-serif" font-size="32" font-weight="700">Inbox workspace</text>
<text x="118" y="104" fill="#64748B" font-family="Inter, Arial, sans-serif" font-size="18">Three panes, one source of truth for mailbox + selected thread.</text>

<rect x="90" y="140" width="250" height="770" rx="28" fill="#0F172A"/>
<text x="126" y="192" fill="#F8FAFC" font-family="Inter, Arial, sans-serif" font-size="20" font-weight="700">Mailbox</text>
<rect x="126" y="236" width="180" height="46" rx="16" fill="#111827"/>
<text x="152" y="265" fill="#E2E8F0" font-family="Inter, Arial, sans-serif" font-size="14">Inbox</text>
<rect x="126" y="294" width="180" height="46" rx="16" fill="#38BDF8"/>
<text x="152" y="323" fill="#0F172A" font-family="Inter, Arial, sans-serif" font-size="14" font-weight="700">Priority</text>
<rect x="126" y="352" width="180" height="46" rx="16" fill="#111827"/>
<text x="152" y="381" fill="#E2E8F0" font-family="Inter, Arial, sans-serif" font-size="14">Sent</text>

<rect x="366" y="140" width="454" height="770" rx="28" fill="#FFFFFF" stroke="#CBD5E1" stroke-width="2"/>
<text x="406" y="192" fill="#0F172A" font-family="Inter, Arial, sans-serif" font-size="20" font-weight="700">Priority inbox</text>
<rect x="406" y="228" width="374" height="48" rx="16" fill="#F8FAFC" stroke="#CBD5E1" stroke-width="2"/>
<text x="430" y="258" fill="#64748B" font-family="Inter, Arial, sans-serif" font-size="14">Search conversations</text>
<rect x="406" y="306" width="374" height="118" rx="20" fill="#E0F2FE"/>
<circle cx="450" cy="352" r="18" fill="#38BDF8"/>
<text x="482" y="340" fill="#0F172A" font-family="Inter, Arial, sans-serif" font-size="15" font-weight="700">Maya Chen</text>
<text x="700" y="340" fill="#475569" font-family="Inter, Arial, sans-serif" font-size="13">10:24</text>
<text x="482" y="367" fill="#0F172A" font-family="Inter, Arial, sans-serif" font-size="14">Launch review notes</text>
<text x="482" y="394" fill="#475569" font-family="Inter, Arial, sans-serif" font-size="13">We need one more pass on the onboarding review flow before Friday...</text>
<rect x="406" y="440" width="374" height="118" rx="20" fill="#FFFFFF" stroke="#CBD5E1" stroke-width="2"/>
<circle cx="450" cy="486" r="18" fill="#E2E8F0"/>
<text x="482" y="474" fill="#0F172A" font-family="Inter, Arial, sans-serif" font-size="15" font-weight="700">Design Ops</text>
<text x="700" y="474" fill="#475569" font-family="Inter, Arial, sans-serif" font-size="13">09:48</text>
<text x="482" y="501" fill="#0F172A" font-family="Inter, Arial, sans-serif" font-size="14">Token audit follow-up</text>
<text x="482" y="528" fill="#475569" font-family="Inter, Arial, sans-serif" font-size="13">The updated spacing tokens are ready for implementation review...</text>

<rect x="846" y="140" width="664" height="770" rx="28" fill="#FFFFFF" stroke="#CBD5E1" stroke-width="2"/>
<text x="892" y="192" fill="#0F172A" font-family="Inter, Arial, sans-serif" font-size="22" font-weight="700">Launch review notes</text>
<text x="892" y="224" fill="#64748B" font-family="Inter, Arial, sans-serif" font-size="14">From Maya Chen · Today at 10:24 AM</text>
<rect x="892" y="264" width="572" height="1" fill="#E2E8F0"/>
<text x="892" y="322" fill="#0F172A" font-family="Inter, Arial, sans-serif" font-size="15">We need one more pass on the onboarding review flow before Friday.</text>
<text x="892" y="352" fill="#0F172A" font-family="Inter, Arial, sans-serif" font-size="15">Please verify the summary step, the empty states, and the footer button hierarchy.</text>
<rect x="892" y="430" width="540" height="182" rx="22" fill="#F8FAFC" stroke="#CBD5E1" stroke-width="2"/>
<text x="924" y="472" fill="#0F172A" font-family="Inter, Arial, sans-serif" font-size="18" font-weight="700">Checklist</text>
<text x="924" y="510" fill="#475569" font-family="Inter, Arial, sans-serif" font-size="14">- Validate confirmation screen layout</text>
<text x="924" y="540" fill="#475569" font-family="Inter, Arial, sans-serif" font-size="14">- Check truncation in thread preview rows</text>
<text x="924" y="570" fill="#475569" font-family="Inter, Arial, sans-serif" font-size="14">- Confirm footer button hierarchy</text>
</svg>
