<svg width="1600" height="980" viewBox="0 0 1600 980" fill="none" xmlns="http://www.w3.org/2000/svg">
<rect width="1600" height="980" fill="#F8FAFC"/>
<text x="102" y="74" fill="#0F172A" font-family="Inter, Arial, sans-serif" font-size="30" font-weight="700">Product delivery board</text>
<text x="102" y="110" fill="#64748B" font-family="Inter, Arial, sans-serif" font-size="18">Kanban board with live filters, draft card creation, drag ordering, and review-ready tasks.</text>
<rect x="82" y="150" width="260" height="760" rx="28" fill="white" stroke="#CBD5E1" stroke-width="2"/>
<rect x="374" y="150" width="1144" height="760" rx="28" fill="white" stroke="#CBD5E1" stroke-width="2"/>
<text x="122" y="196" fill="#0F172A" font-family="Inter, Arial, sans-serif" font-size="20" font-weight="700">Board filters</text>
<rect x="122" y="242" width="180" height="46" rx="16" fill="#E0F2FE" stroke="#0EA5E9" stroke-width="2"/>
<text x="150" y="271" fill="#0369A1" font-family="Inter, Arial, sans-serif" font-size="14" font-weight="700">Release 24.8</text>
<rect x="122" y="304" width="180" height="46" rx="16" fill="#FFFFFF" stroke="#CBD5E1" stroke-width="2"/>
<text x="150" y="333" fill="#0F172A" font-family="Inter, Arial, sans-serif" font-size="14">Frontend platform</text>
<rect x="122" y="366" width="180" height="46" rx="16" fill="#FFFFFF" stroke="#CBD5E1" stroke-width="2"/>
<text x="150" y="395" fill="#0F172A" font-family="Inter, Arial, sans-serif" font-size="14">Needs review</text>
<rect x="122" y="438" width="180" height="112" rx="18" fill="#F8FAFC" stroke="#E2E8F0" stroke-width="2"/>
<text x="146" y="470" fill="#0F172A" font-family="Inter, Arial, sans-serif" font-size="13" font-weight="700">Board snapshot</text>
<text x="146" y="498" fill="#64748B" font-family="Inter, Arial, sans-serif" font-size="12">24 cards · 6 blocked</text>
<text x="146" y="522" fill="#64748B" font-family="Inter, Arial, sans-serif" font-size="12">Last sync 2m ago</text>
<text x="410" y="194" fill="#0F172A" font-family="Inter, Arial, sans-serif" font-size="20" font-weight="700">Sprint board</text>
<rect x="410" y="236" width="250" height="42" rx="14" fill="#F8FAFC" stroke="#CBD5E1" stroke-width="2"/>
<text x="444" y="262" fill="#64748B" font-family="Inter, Arial, sans-serif" font-size="14">Search cards or owners</text>
<rect x="690" y="236" width="250" height="42" rx="14" fill="#F8FAFC" stroke="#CBD5E1" stroke-width="2"/>
<text x="734" y="262" fill="#0F172A" font-family="Inter, Arial, sans-serif" font-size="14">Sort: priority</text>
<rect x="970" y="236" width="250" height="42" rx="14" fill="#F8FAFC" stroke="#CBD5E1" stroke-width="2"/>
<text x="1014" y="262" fill="#0F172A" font-family="Inter, Arial, sans-serif" font-size="14">Group: assignee</text>
<rect x="1250" y="236" width="190" height="42" rx="14" fill="#0EA5E9"/>
<text x="1294" y="262" fill="#F8FAFC" font-family="Inter, Arial, sans-serif" font-size="15" font-weight="700">+ Add card</text>
<rect x="410" y="320" width="250" height="540" rx="24" fill="#F8FAFC" stroke="#E2E8F0" stroke-width="2"/>
<rect x="690" y="320" width="250" height="540" rx="24" fill="#F8FAFC" stroke="#E2E8F0" stroke-width="2"/>
<rect x="970" y="320" width="250" height="540" rx="24" fill="#E0F2FE" stroke="#7DD3FC" stroke-width="2"/>
<rect x="1250" y="320" width="220" height="540" rx="24" fill="#F8FAFC" stroke="#E2E8F0" stroke-width="2"/>
<text x="444" y="362" fill="#0F172A" font-family="Inter, Arial, sans-serif" font-size="18" font-weight="700">Backlog</text>
<text x="724" y="362" fill="#0F172A" font-family="Inter, Arial, sans-serif" font-size="18" font-weight="700">In progress</text>
<text x="1004" y="362" fill="#0369A1" font-family="Inter, Arial, sans-serif" font-size="18" font-weight="700">Review</text>
<text x="1284" y="362" fill="#0F172A" font-family="Inter, Arial, sans-serif" font-size="18" font-weight="700">Done</text>
<rect x="438" y="396" width="194" height="118" rx="18" fill="#FFFFFF" stroke="#CBD5E1" stroke-width="2"/>
<text x="458" y="430" fill="#0F172A" font-family="Inter, Arial, sans-serif" font-size="14" font-weight="700">Refactor profile summary layout</text>
<text x="458" y="458" fill="#64748B" font-family="Inter, Arial, sans-serif" font-size="12">Owner: Maya Chen</text>
<text x="458" y="482" fill="#64748B" font-family="Inter, Arial, sans-serif" font-size="12">P2 · Design systems</text>
<text x="458" y="504" fill="#94A3B8" font-family="Inter, Arial, sans-serif" font-size="11">Due Fri · 3 comments</text>
<rect x="718" y="396" width="194" height="118" rx="18" fill="#FFFFFF" stroke="#CBD5E1" stroke-width="2"/>
<text x="738" y="430" fill="#0F172A" font-family="Inter, Arial, sans-serif" font-size="14" font-weight="700">Stabilize drag events</text>
<text x="738" y="458" fill="#64748B" font-family="Inter, Arial, sans-serif" font-size="12">Owner: Luis Gomez</text>
<text x="738" y="482" fill="#64748B" font-family="Inter, Arial, sans-serif" font-size="12">P1 · Interaction layer</text>
<text x="738" y="504" fill="#94A3B8" font-family="Inter, Arial, sans-serif" font-size="11">Blocked by mobile regression</text>
<rect x="998" y="396" width="194" height="118" rx="18" fill="#FFFFFF" stroke="#0EA5E9" stroke-width="3"/>
<text x="1018" y="430" fill="#0F172A" font-family="Inter, Arial, sans-serif" font-size="14" font-weight="700">Keyboard reorder support</text>
<text x="1018" y="458" fill="#64748B" font-family="Inter, Arial, sans-serif" font-size="12">Owner: Priya Patel</text>
<text x="1018" y="482" fill="#0369A1" font-family="Inter, Arial, sans-serif" font-size="12">Selected card · awaiting review</text>
<text x="1018" y="504" fill="#94A3B8" font-family="Inter, Arial, sans-serif" font-size="11">2 approvals requested</text>
<rect x="1278" y="396" width="164" height="118" rx="18" fill="#FFFFFF" stroke="#CBD5E1" stroke-width="2"/>
<text x="1298" y="430" fill="#0F172A" font-family="Inter, Arial, sans-serif" font-size="14" font-weight="700">Ship token audit</text>
<text x="1298" y="458" fill="#64748B" font-family="Inter, Arial, sans-serif" font-size="12">Completed yesterday</text>
<text x="1298" y="482" fill="#94A3B8" font-family="Inter, Arial, sans-serif" font-size="11">Released in 24.7</text>
<rect x="438" y="540" width="194" height="118" rx="18" fill="#FFFFFF" stroke="#CBD5E1" stroke-width="2"/>
<text x="458" y="574" fill="#0F172A" font-family="Inter, Arial, sans-serif" font-size="14" font-weight="700">Draft new card template</text>
<text x="458" y="602" fill="#64748B" font-family="Inter, Arial, sans-serif" font-size="12">Optimistic create pending</text>
<text x="458" y="624" fill="#94A3B8" font-family="Inter, Arial, sans-serif" font-size="11">Unsynced local draft</text>
<rect x="718" y="540" width="194" height="118" rx="18" fill="#FFFFFF" stroke="#CBD5E1" stroke-width="2"/>
<text x="738" y="574" fill="#0F172A" font-family="Inter, Arial, sans-serif" font-size="14" font-weight="700">Review sync edge cases</text>
<text x="738" y="602" fill="#64748B" font-family="Inter, Arial, sans-serif" font-size="12">Background refetch at 12:40</text>
<text x="738" y="624" fill="#94A3B8" font-family="Inter, Arial, sans-serif" font-size="11">Reconcile moved cards after refresh</text>
<rect x="998" y="540" width="194" height="118" rx="18" fill="#FFFFFF" stroke="#CBD5E1" stroke-width="2"/>
<text x="1018" y="574" fill="#0F172A" font-family="Inter, Arial, sans-serif" font-size="14" font-weight="700">Focus announcements</text>
<text x="1018" y="602" fill="#64748B" font-family="Inter, Arial, sans-serif" font-size="12">Accessibility handoff</text>
<text x="1018" y="624" fill="#94A3B8" font-family="Inter, Arial, sans-serif" font-size="11">Screen reader copy pending</text>
<rect x="410" y="876" width="1060" height="20" rx="10" fill="#E2E8F0"/>
<rect x="410" y="876" width="742" height="20" rx="10" fill="#0EA5E9"/>
<text x="1180" y="890" fill="#334155" font-family="Inter, Arial, sans-serif" font-size="11" font-weight="700">Sprint completion 70%</text>
</svg>
