<svg width="1600" height="980" viewBox="0 0 1600 980" fill="none" xmlns="http://www.w3.org/2000/svg">
<rect width="1600" height="980" fill="#F8FAFC"/>
<text x="90" y="74" fill="#0F172A" font-family="Inter, Arial, sans-serif" font-size="30" font-weight="700">Role permissions matrix</text>
<text x="90" y="110" fill="#64748B" font-family="Inter, Arial, sans-serif" font-size="18">Grouped permissions, implied access, indeterminate toggles, and a clear unsaved changes summary.</text>
<rect x="72" y="148" width="1456" height="772" rx="28" fill="white" stroke="#CBD5E1" stroke-width="2"/>

<rect x="112" y="190" width="1316" height="64" rx="18" fill="#F1F5F9"/>
<text x="146" y="228" fill="#0F172A" font-family="Inter, Arial, sans-serif" font-size="16" font-weight="700">Editing workspace roles for Northstar Product</text>
<text x="792" y="228" fill="#64748B" font-family="Inter, Arial, sans-serif" font-size="13">Roles shown: Viewer · Editor · Admin</text>

<rect x="112" y="286" width="916" height="540" rx="24" fill="#F8FAFC" stroke="#E2E8F0" stroke-width="2"/>
<rect x="1058" y="286" width="370" height="540" rx="24" fill="#0F172A"/>

<text x="150" y="330" fill="#334155" font-family="Inter, Arial, sans-serif" font-size="14" font-weight="700">Permission</text>
<text x="520" y="330" fill="#334155" font-family="Inter, Arial, sans-serif" font-size="14" font-weight="700">Viewer</text>
<text x="690" y="330" fill="#334155" font-family="Inter, Arial, sans-serif" font-size="14" font-weight="700">Editor</text>
<text x="860" y="330" fill="#334155" font-family="Inter, Arial, sans-serif" font-size="14" font-weight="700">Admin</text>

<rect x="136" y="360" width="868" height="70" rx="18" fill="#FFFFFF" stroke="#CBD5E1" stroke-width="2"/>
<text x="164" y="390" fill="#0F172A" font-family="Inter, Arial, sans-serif" font-size="15" font-weight="700">Users</text>
<text x="164" y="412" fill="#64748B" font-family="Inter, Arial, sans-serif" font-size="12">2 of 4 actions enabled on Editor</text>
<rect x="506" y="380" width="34" height="34" rx="10" fill="#FFFFFF" stroke="#CBD5E1" stroke-width="2"/>
<rect x="676" y="380" width="34" height="34" rx="10" fill="#E0F2FE" stroke="#0EA5E9" stroke-width="2"/>
<rect x="684" y="394" width="18" height="6" rx="3" fill="#0EA5E9"/>
<rect x="846" y="380" width="34" height="34" rx="10" fill="#DCFCE7" stroke="#16A34A" stroke-width="2"/>
<path d="M854 397L861 404L873 390" stroke="#16A34A" stroke-width="3" stroke-linecap="round" stroke-linejoin="round"/>

<rect x="136" y="448" width="868" height="82" rx="18" fill="#FFFFFF" stroke="#E2E8F0" stroke-width="2"/>
<text x="188" y="480" fill="#0F172A" font-family="Inter, Arial, sans-serif" font-size="14">users.view</text>
<text x="188" y="504" fill="#64748B" font-family="Inter, Arial, sans-serif" font-size="12">Required by users.edit</text>
<rect x="506" y="468" width="34" height="34" rx="10" fill="#DCFCE7" stroke="#16A34A" stroke-width="2"/>
<path d="M514 485L521 492L533 478" stroke="#16A34A" stroke-width="3" stroke-linecap="round" stroke-linejoin="round"/>
<rect x="676" y="468" width="34" height="34" rx="10" fill="#DCFCE7" stroke="#16A34A" stroke-width="2"/>
<path d="M684 485L691 492L703 478" stroke="#16A34A" stroke-width="3" stroke-linecap="round" stroke-linejoin="round"/>
<rect x="846" y="468" width="34" height="34" rx="10" fill="#DCFCE7" stroke="#16A34A" stroke-width="2"/>
<path d="M854 485L861 492L873 478" stroke="#16A34A" stroke-width="3" stroke-linecap="round" stroke-linejoin="round"/>

<rect x="136" y="548" width="868" height="82" rx="18" fill="#FFFFFF" stroke="#E2E8F0" stroke-width="2"/>
<text x="188" y="580" fill="#0F172A" font-family="Inter, Arial, sans-serif" font-size="14">users.edit</text>
<text x="188" y="604" fill="#64748B" font-family="Inter, Arial, sans-serif" font-size="12">Implied access: users.view</text>
<rect x="506" y="568" width="34" height="34" rx="10" fill="#FFFFFF" stroke="#CBD5E1" stroke-width="2"/>
<rect x="676" y="568" width="34" height="34" rx="10" fill="#DCFCE7" stroke="#16A34A" stroke-width="2"/>
<path d="M684 585L691 592L703 578" stroke="#16A34A" stroke-width="3" stroke-linecap="round" stroke-linejoin="round"/>
<rect x="846" y="568" width="34" height="34" rx="10" fill="#DCFCE7" stroke="#16A34A" stroke-width="2"/>
<path d="M854 585L861 592L873 578" stroke="#16A34A" stroke-width="3" stroke-linecap="round" stroke-linejoin="round"/>

<rect x="136" y="648" width="868" height="82" rx="18" fill="#FFFFFF" stroke="#E2E8F0" stroke-width="2"/>
<text x="188" y="680" fill="#0F172A" font-family="Inter, Arial, sans-serif" font-size="14">billing.manage</text>
<text x="188" y="704" fill="#B91C1C" font-family="Inter, Arial, sans-serif" font-size="12" font-weight="700">High risk: removing this blocks invoice changes</text>
<rect x="506" y="668" width="34" height="34" rx="10" fill="#FFFFFF" stroke="#CBD5E1" stroke-width="2"/>
<rect x="676" y="668" width="34" height="34" rx="10" fill="#FFFFFF" stroke="#CBD5E1" stroke-width="2"/>
<rect x="846" y="668" width="34" height="34" rx="10" fill="#DCFCE7" stroke="#16A34A" stroke-width="2"/>
<path d="M854 685L861 692L873 678" stroke="#16A34A" stroke-width="3" stroke-linecap="round" stroke-linejoin="round"/>

<text x="1094" y="330" fill="#F8FAFC" font-family="Inter, Arial, sans-serif" font-size="22" font-weight="700">Change summary</text>
<text x="1094" y="360" fill="#94A3B8" font-family="Inter, Arial, sans-serif" font-size="13">Derived from leaf permission diffs, not stored separately.</text>
<rect x="1094" y="392" width="298" height="120" rx="20" fill="#111827" stroke="#334155" stroke-width="2"/>
<text x="1122" y="432" fill="#FDE68A" font-family="Inter, Arial, sans-serif" font-size="14" font-weight="700">Unsaved changes</text>
<text x="1122" y="466" fill="#F8FAFC" font-family="Inter, Arial, sans-serif" font-size="13">Editor gains users.edit</text>
<text x="1122" y="492" fill="#F8FAFC" font-family="Inter, Arial, sans-serif" font-size="13">Viewer loses billing.view</text>

<rect x="1094" y="534" width="298" height="118" rx="20" fill="#111827" stroke="#334155" stroke-width="2"/>
<text x="1122" y="574" fill="#DBEAFE" font-family="Inter, Arial, sans-serif" font-size="14" font-weight="700">Warnings</text>
<text x="1122" y="608" fill="#F8FAFC" font-family="Inter, Arial, sans-serif" font-size="13">1 implied permission will be auto-enabled</text>
<text x="1122" y="634" fill="#F8FAFC" font-family="Inter, Arial, sans-serif" font-size="13">2 users may lose billing access</text>

<rect x="1094" y="674" width="298" height="104" rx="20" fill="#172554"/>
<text x="1122" y="714" fill="#DBEAFE" font-family="Inter, Arial, sans-serif" font-size="14" font-weight="700">Role access snapshot</text>
<text x="1122" y="746" fill="#F8FAFC" font-family="Inter, Arial, sans-serif" font-size="13">Editor: 9 / 16 permissions</text>
</svg>
