<svg width="1600" height="1000" viewBox="0 0 1600 1000" fill="none" xmlns="http://www.w3.org/2000/svg">
<rect width="1600" height="1000" fill="#E2E8F0"/>
<rect x="520" y="110" width="560" height="780" rx="34" fill="white" stroke="#CBD5E1" stroke-width="2"/>
<rect x="590" y="176" width="196" height="26" rx="13" fill="#0F172A" fill-opacity=".14"/>
<rect x="590" y="222" width="320" height="18" rx="9" fill="#0F172A" fill-opacity=".08"/>
<rect x="590" y="302" width="120" height="14" rx="7" fill="#0F172A" fill-opacity=".12"/>
<rect x="590" y="326" width="420" height="62" rx="16" fill="#F8FAFC" stroke="#94A3B8" stroke-width="2"/>
<rect x="590" y="430" width="146" height="14" rx="7" fill="#0F172A" fill-opacity=".12"/>
<rect x="590" y="454" width="420" height="62" rx="16" fill="#F8FAFC" stroke="#94A3B8" stroke-width="2"/>
<rect x="894" y="474" width="86" height="22" rx="11" fill="#38BDF8" fill-opacity=".18"/>
<rect x="590" y="546" width="220" height="12" rx="6" fill="#EF4444" fill-opacity=".22"/>
<rect x="590" y="596" width="22" height="22" rx="6" fill="#0F172A" fill-opacity=".08"/>
<rect x="626" y="600" width="186" height="14" rx="7" fill="#0F172A" fill-opacity=".10"/>
<rect x="908" y="600" width="102" height="14" rx="7" fill="#0F172A" fill-opacity=".10"/>
<rect x="590" y="676" width="420" height="60" rx="18" fill="#0F172A"/>
<rect x="670" y="699" width="160" height="14" rx="7" fill="#E2E8F0" fill-opacity=".95"/>
<rect x="662" y="766" width="176" height="14" rx="7" fill="#0F172A" fill-opacity=".10"/>
</svg>
