<svg width="1600" height="1000" viewBox="0 0 1600 1000" fill="none" xmlns="http://www.w3.org/2000/svg">
<rect width="1600" height="1000" fill="#F8FAFC"/>
<rect x="90" y="60" width="1420" height="96" rx="26" fill="#0F172A"/>
<rect x="90" y="190" width="240" height="700" rx="26" fill="#1E293B"/>
<rect x="364" y="190" width="820" height="700" rx="26" fill="white" stroke="#CBD5E1" stroke-width="2"/>
<rect x="1218" y="190" width="292" height="700" rx="26" fill="#E2E8F0"/>
<rect x="404" y="238" width="736" height="150" rx="22" fill="#F1F5F9"/>
<rect x="404" y="428" width="230" height="126" rx="20" fill="#F8FAFC" stroke="#CBD5E1" stroke-width="2"/>
<rect x="678" y="428" width="230" height="126" rx="20" fill="#F8FAFC" stroke="#CBD5E1" stroke-width="2"/>
<rect x="952" y="428" width="188" height="126" rx="20" fill="#F8FAFC" stroke="#CBD5E1" stroke-width="2"/>
<rect x="404" y="594" width="736" height="250" rx="22" fill="#F8FAFC" stroke="#CBD5E1" stroke-width="2"/>
<rect x="105" y="75" width="220" height="66" rx="18" stroke="#38BDF8" stroke-width="4" stroke-dasharray="12 10"/>
<rect x="105" y="205" width="210" height="670" rx="18" stroke="#38BDF8" stroke-width="4" stroke-dasharray="12 10"/>
<rect x="379" y="205" width="790" height="670" rx="18" stroke="#38BDF8" stroke-width="4" stroke-dasharray="12 10"/>
<rect x="1233" y="205" width="262" height="670" rx="18" stroke="#38BDF8" stroke-width="4" stroke-dasharray="12 10"/>
</svg>
