<svg width="1600" height="1000" viewBox="0 0 1600 1000" fill="none" xmlns="http://www.w3.org/2000/svg">
<rect width="1600" height="1000" fill="#F8FAFC"/>
<rect x="110" y="70" width="1380" height="860" rx="28" fill="white" stroke="#CBD5E1" stroke-width="2"/>
<rect x="160" y="112" width="240" height="24" rx="10" fill="#0F172A" fill-opacity=".12"/>
<rect x="160" y="168" width="1180" height="70" rx="20" fill="#F1F5F9"/>
<circle cx="242" cy="203" r="24" fill="#38BDF8"/>
<circle cx="560" cy="203" r="24" fill="#CBD5E1"/>
<circle cx="878" cy="203" r="24" fill="#CBD5E1"/>
<line x1="268" y1="203" x2="534" y2="203" stroke="#94A3B8" stroke-width="4"/>
<line x1="586" y1="203" x2="852" y2="203" stroke="#CBD5E1" stroke-width="4"/>
<rect x="200" y="290" width="860" height="520" rx="24" fill="#F8FAFC" stroke="#E2E8F0" stroke-width="2"/>
<rect x="1100" y="290" width="340" height="520" rx="24" fill="#0F172A"/>
<rect x="232" y="330" width="260" height="18" rx="9" fill="#0F172A" fill-opacity=".14"/>
<rect x="232" y="396" width="230" height="14" rx="7" fill="#0F172A" fill-opacity=".12"/>
<rect x="232" y="420" width="594" height="52" rx="14" fill="white" stroke="#CBD5E1" stroke-width="2"/>
<rect x="232" y="500" width="260" height="14" rx="7" fill="#0F172A" fill-opacity=".12"/>
<rect x="232" y="524" width="594" height="52" rx="14" fill="white" stroke="#CBD5E1" stroke-width="2"/>
<rect x="232" y="604" width="260" height="14" rx="7" fill="#0F172A" fill-opacity=".12"/>
<rect x="232" y="628" width="280" height="52" rx="14" fill="white" stroke="#CBD5E1" stroke-width="2"/>
<rect x="546" y="628" width="280" height="52" rx="14" fill="white" stroke="#CBD5E1" stroke-width="2"/>
<rect x="1140" y="330" width="140" height="16" rx="8" fill="#E2E8F0" fill-opacity=".9"/>
<rect x="1140" y="382" width="260" height="18" rx="9" fill="#E2E8F0" fill-opacity=".16"/>
<rect x="1140" y="420" width="220" height="14" rx="7" fill="#E2E8F0" fill-opacity=".12"/>
<rect x="1140" y="448" width="220" height="14" rx="7" fill="#E2E8F0" fill-opacity=".12"/>
<rect x="1140" y="500" width="260" height="18" rx="9" fill="#E2E8F0" fill-opacity=".16"/>
<rect x="1140" y="538" width="220" height="14" rx="7" fill="#E2E8F0" fill-opacity=".12"/>
<rect x="1140" y="566" width="220" height="14" rx="7" fill="#E2E8F0" fill-opacity=".12"/>
<rect x="200" y="842" width="1240" height="48" rx="18" fill="#F1F5F9"/>
<rect x="1060" y="852" width="150" height="28" rx="14" fill="#E2E8F0"/>
<rect x="1230" y="852" width="170" height="28" rx="14" fill="#38BDF8"/>
</svg>
