<svg width="1600" height="1000" viewBox="0 0 1600 1000" fill="none" xmlns="http://www.w3.org/2000/svg">
<rect width="1600" height="1000" fill="#F8FAFC"/>
<rect x="120" y="90" width="1360" height="820" rx="28" fill="white" stroke="#CBD5E1" stroke-width="2"/>
<rect x="170" y="140" width="260" height="26" rx="10" fill="#0F172A" fill-opacity=".12"/>
<rect x="170" y="186" width="460" height="18" rx="9" fill="#94A3B8" fill-opacity=".25"/>
<rect x="170" y="250" width="1260" height="84" rx="20" fill="#E2E8F0"/>
<rect x="470" y="230" width="240" height="124" rx="22" fill="#DBEAFE" stroke="#38BDF8" stroke-width="4"/>
<rect x="520" y="258" width="140" height="14" rx="7" fill="#0F172A" fill-opacity=".14"/>
<rect x="202" y="278" width="120" height="16" rx="8" fill="#0F172A" fill-opacity=".18"/>
<rect x="478" y="286" width="224" height="20" rx="10" fill="#38BDF8" fill-opacity=".18"/>
<rect x="814" y="278" width="120" height="16" rx="8" fill="#0F172A" fill-opacity=".18"/>
<rect x="1120" y="278" width="120" height="16" rx="8" fill="#0F172A" fill-opacity=".18"/>
<rect x="170" y="364" width="1260" height="452" rx="20" fill="#F8FAFC" stroke="#E2E8F0" stroke-width="2"/>
<rect x="170" y="364" width="1260" height="64" rx="20" fill="#F1F5F9"/>
<rect x="200" y="388" width="180" height="16" rx="8" fill="#0F172A" fill-opacity=".16"/>
<rect x="518" y="388" width="92" height="16" rx="8" fill="#0F172A" fill-opacity=".16"/>
<rect x="834" y="388" width="92" height="16" rx="8" fill="#0F172A" fill-opacity=".16"/>
<rect x="1150" y="388" width="92" height="16" rx="8" fill="#0F172A" fill-opacity=".16"/>
<rect x="458" y="428" width="240" height="388" fill="#EFF6FF"/>
<line x1="458" y1="364" x2="458" y2="816" stroke="#38BDF8" stroke-width="3"/>
<line x1="698" y1="364" x2="698" y2="816" stroke="#38BDF8" stroke-width="3"/>
<line x1="170" y1="428" x2="1430" y2="428" stroke="#CBD5E1"/>
<line x1="170" y1="492" x2="1430" y2="492" stroke="#CBD5E1"/>
<line x1="170" y1="556" x2="1430" y2="556" stroke="#CBD5E1"/>
<line x1="170" y1="620" x2="1430" y2="620" stroke="#CBD5E1"/>
<line x1="170" y1="684" x2="1430" y2="684" stroke="#CBD5E1"/>
<line x1="170" y1="748" x2="1430" y2="748" stroke="#CBD5E1"/>
<line x1="430" y1="364" x2="430" y2="816" stroke="#CBD5E1"/>
<line x1="774" y1="364" x2="774" y2="816" stroke="#CBD5E1"/>
<line x1="1090" y1="364" x2="1090" y2="816" stroke="#CBD5E1"/>
<rect x="200" y="452" width="150" height="12" rx="6" fill="#0F172A" fill-opacity=".12"/>
<rect x="200" y="516" width="132" height="12" rx="6" fill="#0F172A" fill-opacity=".12"/>
<rect x="200" y="580" width="142" height="12" rx="6" fill="#0F172A" fill-opacity=".12"/>
<rect x="200" y="644" width="166" height="12" rx="6" fill="#0F172A" fill-opacity=".12"/>
<rect x="200" y="708" width="124" height="12" rx="6" fill="#0F172A" fill-opacity=".12"/>
<rect x="200" y="772" width="138" height="12" rx="6" fill="#0F172A" fill-opacity=".12"/>
<circle cx="550" cy="458" r="10" fill="#22C55E"/>
<circle cx="866" cy="458" r="10" fill="#22C55E"/>
<circle cx="1182" cy="458" r="10" fill="#94A3B8"/>
<circle cx="1298" cy="458" r="10" fill="#22C55E"/>
<circle cx="550" cy="522" r="10" fill="#22C55E"/>
<circle cx="866" cy="522" r="10" fill="#22C55E"/>
<circle cx="1182" cy="522" r="10" fill="#22C55E"/>
<circle cx="1298" cy="522" r="10" fill="#22C55E"/>
<circle cx="550" cy="586" r="10" fill="#94A3B8"/>
<circle cx="866" cy="586" r="10" fill="#22C55E"/>
<circle cx="1182" cy="586" r="10" fill="#22C55E"/>
<circle cx="1298" cy="586" r="10" fill="#22C55E"/>
</svg>
