<svg width="1600" height="1000" viewBox="0 0 1600 1000" fill="none" xmlns="http://www.w3.org/2000/svg">
<rect width="1600" height="1000" fill="#0B1220"/>
<rect x="84" y="48" width="1432" height="96" rx="26" fill="#111B2E"/>
<rect x="126" y="86" width="240" height="20" rx="10" fill="#E5EEF9" fill-opacity=".16"/>
<rect x="1284" y="82" width="100" height="24" rx="12" fill="#E5EEF9" fill-opacity=".10"/>
<rect x="1400" y="82" width="72" height="24" rx="12" fill="#38BDF8" fill-opacity=".32"/>
<rect x="84" y="180" width="248" height="708" rx="26" fill="#121C30"/>
<rect x="364" y="180" width="818" height="708" rx="26" fill="#111B2E"/>
<rect x="1214" y="180" width="302" height="708" rx="26" fill="#121C30"/>
<rect x="120" y="226" width="150" height="16" rx="8" fill="#E5EEF9" fill-opacity=".12"/>
<rect x="120" y="284" width="176" height="44" rx="14" fill="#1E293B"/>
<rect x="120" y="344" width="176" height="44" rx="14" fill="#1E293B"/>
<rect x="120" y="404" width="176" height="44" rx="14" fill="#1E293B"/>
<rect x="400" y="224" width="220" height="18" rx="9" fill="#E5EEF9" fill-opacity=".16"/>
<rect x="400" y="280" width="352" height="134" rx="20" fill="#0F172A"/>
<rect x="778" y="280" width="368" height="134" rx="20" fill="#0F172A"/>
<rect x="400" y="444" width="230" height="16" rx="8" fill="#E5EEF9" fill-opacity=".12"/>
<rect x="400" y="490" width="346" height="150" rx="18" fill="#0F172A"/>
<rect x="782" y="490" width="346" height="150" rx="18" fill="#0F172A"/>
<rect x="400" y="674" width="346" height="150" rx="18" fill="#0F172A"/>
<rect x="782" y="674" width="346" height="150" rx="18" fill="#0F172A"/>
<rect x="1248" y="226" width="160" height="16" rx="8" fill="#E5EEF9" fill-opacity=".12"/>
<rect x="1248" y="284" width="236" height="92" rx="18" fill="#0F172A"/>
<rect x="1248" y="398" width="236" height="92" rx="18" fill="#0F172A"/>
<rect x="1248" y="512" width="236" height="92" rx="18" fill="#0F172A"/>
</svg>
