<svg width="1600" height="1100" viewBox="0 0 1600 1100" fill="none" xmlns="http://www.w3.org/2000/svg">
<rect width="1600" height="1100" fill="#FCFBF8"/>
<rect x="0" y="0" width="1600" height="320" fill="#D6D3D1"/>
<rect x="120" y="72" width="220" height="20" rx="10" fill="#111827" fill-opacity=".18"/>
<rect x="120" y="120" width="620" height="36" rx="12" fill="#111827" fill-opacity=".24"/>
<rect x="120" y="172" width="540" height="20" rx="10" fill="#111827" fill-opacity=".16"/>
<rect x="120" y="204" width="440" height="20" rx="10" fill="#111827" fill-opacity=".16"/>
<rect x="120" y="252" width="150" height="18" rx="9" fill="#111827" fill-opacity=".12"/>
<rect x="180" y="380" width="840" height="620" rx="0" fill="#FCFBF8"/>
<rect x="1120" y="380" width="280" height="480" rx="18" fill="#F3F4F6" stroke="#D1D5DB"/>
<rect x="180" y="380" width="100" height="14" rx="7" fill="#111827" fill-opacity=".18"/>
<rect x="180" y="430" width="700" height="18" rx="9" fill="#111827" fill-opacity=".10"/>
<rect x="180" y="464" width="760" height="18" rx="9" fill="#111827" fill-opacity=".10"/>
<rect x="180" y="498" width="720" height="18" rx="9" fill="#111827" fill-opacity=".10"/>
<rect x="180" y="560" width="760" height="220" rx="22" fill="#E5E7EB"/>
<rect x="210" y="810" width="640" height="18" rx="9" fill="#111827" fill-opacity=".10"/>
<rect x="210" y="844" width="690" height="18" rx="9" fill="#111827" fill-opacity=".10"/>
<rect x="210" y="878" width="620" height="18" rx="9" fill="#111827" fill-opacity=".10"/>
<rect x="960" y="810" width="60" height="90" rx="14" fill="#E5E7EB"/>
<rect x="210" y="936" width="760" height="18" rx="9" fill="#111827" fill-opacity=".10"/>
<rect x="1148" y="412" width="140" height="16" rx="8" fill="#111827" fill-opacity=".14"/>
<rect x="1148" y="458" width="220" height="14" rx="7" fill="#111827" fill-opacity=".1"/>
<rect x="1148" y="488" width="220" height="14" rx="7" fill="#111827" fill-opacity=".1"/>
<rect x="1148" y="518" width="220" height="14" rx="7" fill="#111827" fill-opacity=".1"/>
<rect x="1148" y="578" width="220" height="120" rx="16" fill="#E5E7EB"/>
<rect x="1148" y="730" width="180" height="14" rx="7" fill="#111827" fill-opacity=".1"/>
<rect x="1148" y="760" width="190" height="14" rx="7" fill="#111827" fill-opacity=".1"/>
</svg>
