<svg width="1600" height="1000" viewBox="0 0 1600 1000" fill="none" xmlns="http://www.w3.org/2000/svg">
<rect width="1600" height="1000" fill="#F8FAFC"/>
<rect x="100" y="70" width="1400" height="110" rx="26" fill="#0F172A"/>
<rect x="150" y="110" width="220" height="20" rx="10" fill="#E2E8F0" fill-opacity=".18"/>
<rect x="1230" y="106" width="110" height="28" rx="14" fill="#E2E8F0" fill-opacity=".10"/>
<rect x="1360" y="106" width="90" height="28" rx="14" fill="#38BDF8" fill-opacity=".35"/>
<rect x="100" y="220" width="260" height="610" rx="24" fill="#111827"/>
<rect x="390" y="220" width="820" height="610" rx="24" fill="white" stroke="#CBD5E1" stroke-width="2"/>
<rect x="1240" y="220" width="260" height="610" rx="24" fill="#E2E8F0"/>
<rect x="132" y="254" width="120" height="16" rx="8" fill="#E2E8F0" fill-opacity=".12"/>
<rect x="132" y="308" width="196" height="48" rx="14" fill="#1E293B"/>
<rect x="132" y="374" width="196" height="48" rx="14" fill="#1E293B"/>
<rect x="132" y="440" width="196" height="48" rx="14" fill="#1E293B"/>
<rect x="132" y="528" width="196" height="260" rx="18" fill="#0B1220"/>
<rect x="430" y="256" width="220" height="22" rx="11" fill="#0F172A" fill-opacity=".14"/>
<rect x="430" y="312" width="740" height="140" rx="20" fill="#F1F5F9"/>
<rect x="430" y="484" width="350" height="140" rx="18" fill="#F8FAFC" stroke="#CBD5E1" stroke-width="2"/>
<rect x="820" y="484" width="350" height="140" rx="18" fill="#F8FAFC" stroke="#CBD5E1" stroke-width="2"/>
<rect x="430" y="656" width="740" height="140" rx="20" fill="#F8FAFC" stroke="#CBD5E1" stroke-width="2"/>
<rect x="460" y="344" width="220" height="16" rx="8" fill="#0F172A" fill-opacity=".10"/>
<rect x="460" y="374" width="300" height="16" rx="8" fill="#0F172A" fill-opacity=".10"/>
<rect x="1272" y="254" width="120" height="16" rx="8" fill="#0F172A" fill-opacity=".14"/>
<rect x="1272" y="308" width="180" height="18" rx="9" fill="#0F172A" fill-opacity=".08"/>
<rect x="1272" y="344" width="180" height="18" rx="9" fill="#0F172A" fill-opacity=".08"/>
<rect x="1272" y="380" width="180" height="18" rx="9" fill="#0F172A" fill-opacity=".08"/>
<rect x="1272" y="450" width="180" height="150" rx="16" fill="#CBD5E1"/>
<rect x="100" y="860" width="1400" height="90" rx="24" fill="#0F172A"/>
<rect x="150" y="895" width="260" height="16" rx="8" fill="#E2E8F0" fill-opacity=".14"/>
</svg>
