<svg width="1600" height="1000" viewBox="0 0 1600 1000" fill="none" xmlns="http://www.w3.org/2000/svg">
<rect width="1600" height="1000" fill="#F8FAFC"/>
<text x="118" y="70" fill="#0F172A" font-family="Inter, Arial, sans-serif" font-size="32" font-weight="700">Inbox workspace</text>
<text x="118" y="104" fill="#64748B" font-family="Inter, Arial, sans-serif" font-size="18">A realistic split-view UI with mailbox navigation, thread list, and detail content.</text>

<rect x="90" y="140" width="250" height="770" rx="28" fill="#0F172A"/>
<text x="126" y="192" fill="#F8FAFC" font-family="Inter, Arial, sans-serif" font-size="20" font-weight="700">Mailbox</text>
<rect x="126" y="234" width="178" height="46" rx="16" fill="#111827"/>
<text x="152" y="263" fill="#E2E8F0" font-family="Inter, Arial, sans-serif" font-size="14">Inbox</text>
<rect x="126" y="292" width="178" height="46" rx="16" fill="#38BDF8"/>
<text x="152" y="321" fill="#0F172A" font-family="Inter, Arial, sans-serif" font-size="14" font-weight="700">Priority</text>
<rect x="126" y="350" width="178" height="46" rx="16" fill="#111827"/>
<text x="152" y="379" fill="#E2E8F0" font-family="Inter, Arial, sans-serif" font-size="14">Archive</text>

<rect x="366" y="140" width="456" height="770" rx="28" fill="white" stroke="#CBD5E1" stroke-width="2"/>
<text x="406" y="192" fill="#0F172A" font-family="Inter, Arial, sans-serif" font-size="20" font-weight="700">Priority inbox</text>
<rect x="406" y="228" width="376" height="48" rx="16" fill="#F8FAFC" stroke="#CBD5E1" stroke-width="2"/>
<text x="430" y="258" fill="#64748B" font-family="Inter, Arial, sans-serif" font-size="14">Search conversations</text>
<rect x="406" y="306" width="376" height="116" rx="20" fill="#E0F2FE"/>
<circle cx="450" cy="352" r="18" fill="#38BDF8"/>
<text x="482" y="340" fill="#0F172A" font-family="Inter, Arial, sans-serif" font-size="15" font-weight="700">Maya Chen</text>
<text x="700" y="340" fill="#475569" font-family="Inter, Arial, sans-serif" font-size="13">2m</text>
<text x="482" y="366" fill="#0F172A" font-family="Inter, Arial, sans-serif" font-size="14">Launch review notes</text>
<text x="482" y="392" fill="#475569" font-family="Inter, Arial, sans-serif" font-size="13">We need a final pass on the onboarding edge cases before Friday...</text>
<rect x="406" y="438" width="376" height="116" rx="20" fill="#FFFFFF" stroke="#CBD5E1" stroke-width="2"/>
<circle cx="450" cy="484" r="18" fill="#E2E8F0"/>
<text x="482" y="472" fill="#0F172A" font-family="Inter, Arial, sans-serif" font-size="15" font-weight="700">Design Ops</text>
<text x="700" y="472" fill="#475569" font-family="Inter, Arial, sans-serif" font-size="13">17m</text>
<text x="482" y="498" fill="#0F172A" font-family="Inter, Arial, sans-serif" font-size="14">Token audit follow-up</text>
<text x="482" y="524" fill="#475569" font-family="Inter, Arial, sans-serif" font-size="13">The updated spacing tokens are ready for implementation review...</text>

<rect x="848" y="140" width="662" height="770" rx="28" fill="white" stroke="#CBD5E1" stroke-width="2"/>
<text x="894" y="192" fill="#0F172A" font-family="Inter, Arial, sans-serif" font-size="22" font-weight="700">Launch review notes</text>
<text x="894" y="224" fill="#64748B" font-family="Inter, Arial, sans-serif" font-size="14">From Maya Chen · Today at 10:24 AM</text>
<rect x="894" y="266" width="570" height="1" fill="#E2E8F0"/>
<text x="894" y="322" fill="#0F172A" font-family="Inter, Arial, sans-serif" font-size="15">We need one more pass on the onboarding review flow before Friday.</text>
<text x="894" y="352" fill="#0F172A" font-family="Inter, Arial, sans-serif" font-size="15">Please verify the summary step, empty states, and error messaging.</text>
<rect x="894" y="426" width="540" height="180" rx="22" fill="#F8FAFC" stroke="#CBD5E1" stroke-width="2"/>
<text x="926" y="470" fill="#0F172A" font-family="Inter, Arial, sans-serif" font-size="18" font-weight="700">Checklist</text>
<text x="926" y="510" fill="#475569" font-family="Inter, Arial, sans-serif" font-size="14">- Validate confirmation screen layout</text>
<text x="926" y="540" fill="#475569" font-family="Inter, Arial, sans-serif" font-size="14">- Check mobile truncation in message preview rows</text>
<text x="926" y="570" fill="#475569" font-family="Inter, Arial, sans-serif" font-size="14">- Confirm button hierarchy in footer actions</text>
</svg>
