<svg width="1600" height="1000" viewBox="0 0 1600 1000" fill="none" xmlns="http://www.w3.org/2000/svg">
<rect width="1600" height="1000" fill="#F8FAFC"/>
<rect x="90" y="60" width="1420" height="94" rx="26" fill="#0F172A"/>
<rect x="90" y="194" width="1420" height="716" rx="30" fill="#E2E8F0"/>
<rect x="130" y="234" width="300" height="636" rx="24" fill="#FFFFFF"/>
<rect x="462" y="234" width="300" height="636" rx="24" fill="#FFFFFF"/>
<rect x="794" y="234" width="300" height="636" rx="24" fill="#FFFFFF"/>
<rect x="1126" y="234" width="300" height="636" rx="24" fill="#FFFFFF"/>
<rect x="164" y="274" width="120" height="18" rx="9" fill="#0F172A" fill-opacity=".14"/>
<rect x="496" y="274" width="120" height="18" rx="9" fill="#0F172A" fill-opacity=".14"/>
<rect x="828" y="274" width="120" height="18" rx="9" fill="#0F172A" fill-opacity=".14"/>
<rect x="1160" y="274" width="120" height="18" rx="9" fill="#0F172A" fill-opacity=".14"/>
<rect x="164" y="334" width="232" height="118" rx="20" fill="#F8FAFC" stroke="#CBD5E1" stroke-width="2"/>
<rect x="164" y="476" width="232" height="118" rx="20" fill="#F8FAFC" stroke="#CBD5E1" stroke-width="2"/>
<rect x="496" y="334" width="232" height="118" rx="20" fill="#F8FAFC" stroke="#CBD5E1" stroke-width="2"/>
<rect x="828" y="334" width="232" height="118" rx="20" fill="#F8FAFC" stroke="#CBD5E1" stroke-width="2"/>
<rect x="828" y="476" width="232" height="118" rx="20" fill="#F8FAFC" stroke="#CBD5E1" stroke-width="2"/>
<rect x="1160" y="334" width="232" height="118" rx="20" fill="#F8FAFC" stroke="#CBD5E1" stroke-width="2"/>
</svg>
