<svg width="1600" height="1000" viewBox="0 0 1600 1000" fill="none" xmlns="http://www.w3.org/2000/svg">
<rect width="1600" height="1000" fill="#F8FAFC"/>
<text x="118" y="70" fill="#0F172A" font-family="Inter, Arial, sans-serif" font-size="32" font-weight="700">Delivery board</text>
<text x="118" y="104" fill="#64748B" font-family="Inter, Arial, sans-serif" font-size="18">A realistic board layout with repeated columns and repeated task cards.</text>

<rect x="90" y="140" width="1420" height="88" rx="24" fill="#0F172A"/>
<text x="126" y="193" fill="#F8FAFC" font-family="Inter, Arial, sans-serif" font-size="20" font-weight="700">Q3 Launch Planning</text>
<rect x="1242" y="164" width="106" height="40" rx="14" fill="#111827" stroke="#334155" stroke-width="2"/>
<text x="1271" y="189" fill="#E2E8F0" font-family="Inter, Arial, sans-serif" font-size="13">Filter</text>
<rect x="1364" y="164" width="106" height="40" rx="14" fill="#38BDF8"/>
<text x="1390" y="189" fill="#0F172A" font-family="Inter, Arial, sans-serif" font-size="13" font-weight="700">New task</text>

<rect x="90" y="256" width="1420" height="654" rx="30" fill="#E2E8F0"/>

<rect x="122" y="288" width="316" height="590" rx="24" fill="#FFFFFF"/>
<text x="150" y="332" fill="#0F172A" font-family="Inter, Arial, sans-serif" font-size="18" font-weight="700">Backlog</text>
<rect x="342" y="314" width="56" height="24" rx="12" fill="#E2E8F0"/>
<text x="364" y="330" fill="#475569" font-family="Inter, Arial, sans-serif" font-size="12" font-weight="700">12</text>
<rect x="150" y="360" width="260" height="132" rx="20" fill="#F8FAFC" stroke="#CBD5E1" stroke-width="2"/>
<text x="174" y="398" fill="#0F172A" font-family="Inter, Arial, sans-serif" font-size="16" font-weight="700">Review billing edge cases</text>
<text x="174" y="430" fill="#64748B" font-family="Inter, Arial, sans-serif" font-size="13">Checkout flow, proration, and seat downgrade paths.</text>
<rect x="174" y="454" width="74" height="24" rx="12" fill="#DBEAFE"/>
<text x="193" y="470" fill="#1D4ED8" font-family="Inter, Arial, sans-serif" font-size="11" font-weight="700">Design</text>

<rect x="470" y="288" width="316" height="590" rx="24" fill="#FFFFFF"/>
<text x="498" y="332" fill="#0F172A" font-family="Inter, Arial, sans-serif" font-size="18" font-weight="700">In progress</text>
<rect x="720" y="314" width="44" height="24" rx="12" fill="#E2E8F0"/>
<text x="737" y="330" fill="#475569" font-family="Inter, Arial, sans-serif" font-size="12" font-weight="700">5</text>
<rect x="498" y="360" width="260" height="132" rx="20" fill="#F8FAFC" stroke="#CBD5E1" stroke-width="2"/>
<text x="522" y="398" fill="#0F172A" font-family="Inter, Arial, sans-serif" font-size="16" font-weight="700">Implement onboarding wizard</text>
<text x="522" y="430" fill="#64748B" font-family="Inter, Arial, sans-serif" font-size="13">Step states, review page, and progress tracker.</text>
<rect x="522" y="454" width="88" height="24" rx="12" fill="#DCFCE7"/>
<text x="545" y="470" fill="#166534" font-family="Inter, Arial, sans-serif" font-size="11" font-weight="700">Frontend</text>

<rect x="818" y="288" width="316" height="590" rx="24" fill="#FFFFFF"/>
<text x="846" y="332" fill="#0F172A" font-family="Inter, Arial, sans-serif" font-size="18" font-weight="700">Review</text>
<rect x="1068" y="314" width="44" height="24" rx="12" fill="#E2E8F0"/>
<text x="1084" y="330" fill="#475569" font-family="Inter, Arial, sans-serif" font-size="12" font-weight="700">3</text>
<rect x="846" y="360" width="260" height="132" rx="20" fill="#F8FAFC" stroke="#CBD5E1" stroke-width="2"/>
<text x="870" y="398" fill="#0F172A" font-family="Inter, Arial, sans-serif" font-size="16" font-weight="700">Compare analytics export formats</text>
<text x="870" y="430" fill="#64748B" font-family="Inter, Arial, sans-serif" font-size="13">CSV, JSON, and PDF output expectations.</text>
<rect x="870" y="454" width="72" height="24" rx="12" fill="#FDE68A"/>
<text x="889" y="470" fill="#92400E" font-family="Inter, Arial, sans-serif" font-size="11" font-weight="700">Data</text>

<rect x="1166" y="288" width="316" height="590" rx="24" fill="#FFFFFF"/>
<text x="1194" y="332" fill="#0F172A" font-family="Inter, Arial, sans-serif" font-size="18" font-weight="700">Done</text>
<rect x="1416" y="314" width="44" height="24" rx="12" fill="#E2E8F0"/>
<text x="1432" y="330" fill="#475569" font-family="Inter, Arial, sans-serif" font-size="12" font-weight="700">9</text>
<rect x="1194" y="360" width="260" height="132" rx="20" fill="#F8FAFC" stroke="#CBD5E1" stroke-width="2"/>
<text x="1218" y="398" fill="#0F172A" font-family="Inter, Arial, sans-serif" font-size="16" font-weight="700">Ship dashboard shell</text>
<text x="1218" y="430" fill="#64748B" font-family="Inter, Arial, sans-serif" font-size="13">Header, sidebar, and responsive content frame.</text>
<rect x="1218" y="454" width="76" height="24" rx="12" fill="#EDE9FE"/>
<text x="1238" y="470" fill="#6D28D9" font-family="Inter, Arial, sans-serif" font-size="11" font-weight="700">Layout</text>
</svg>
