<svg width="1600" height="1000" viewBox="0 0 1600 1000" fill="none" xmlns="http://www.w3.org/2000/svg">
<rect width="1600" height="1000" fill="#0F172A"/>
<rect x="0" y="0" width="92" height="1000" fill="#111827"/>
<rect x="120" y="28" width="240" height="44" rx="16" fill="#1E293B"/>
<rect x="390" y="28" width="640" height="44" rx="16" fill="#111827"/>
<rect x="1060" y="28" width="240" height="44" rx="16" fill="#111827"/>
<rect x="1332" y="28" width="148" height="44" rx="16" fill="#38BDF8" fill-opacity=".25"/>
<rect x="120" y="112" width="300" height="840" rx="28" fill="#111827"/>
<rect x="450" y="112" width="720" height="840" rx="28" fill="#111827"/>
<rect x="1200" y="112" width="280" height="840" rx="28" fill="#111827"/>
<rect x="154" y="148" width="120" height="16" rx="8" fill="#E5EEF9" fill-opacity=".14"/>
<rect x="154" y="202" width="232" height="54" rx="16" fill="#1E293B"/>
<rect x="154" y="278" width="232" height="54" rx="16" fill="#1E293B"/>
<rect x="154" y="354" width="232" height="54" rx="16" fill="#1E293B"/>
<rect x="154" y="452" width="232" height="280" rx="20" fill="#0B1220"/>
<rect x="486" y="148" width="650" height="160" rx="22" fill="#13233A"/>
<rect x="516" y="184" width="240" height="18" rx="9" fill="#E5EEF9" fill-opacity=".16"/>
<rect x="516" y="220" width="420" height="14" rx="7" fill="#E5EEF9" fill-opacity=".1"/>
<rect x="516" y="248" width="360" height="14" rx="7" fill="#E5EEF9" fill-opacity=".1"/>
<rect x="486" y="336" width="650" height="260" rx="22" fill="#0B1220"/>
<rect x="516" y="368" width="180" height="16" rx="8" fill="#E5EEF9" fill-opacity=".12"/>
<rect x="516" y="416" width="182" height="144" rx="16" fill="#1E293B"/>
<rect x="720" y="416" width="182" height="144" rx="16" fill="#1E293B"/>
<rect x="924" y="416" width="182" height="144" rx="16" fill="#1E293B"/>
<rect x="486" y="626" width="310" height="290" rx="20" fill="#0B1220"/>
<rect x="826" y="626" width="310" height="290" rx="20" fill="#0B1220"/>
<rect x="1232" y="148" width="216" height="120" rx="18" fill="#13233A"/>
<rect x="1232" y="294" width="216" height="220" rx="18" fill="#0B1220"/>
<rect x="1232" y="540" width="216" height="160" rx="18" fill="#13233A"/>
<rect x="1232" y="728" width="216" height="188" rx="18" fill="#0B1220"/>
<rect x="1260" y="178" width="120" height="14" rx="7" fill="#E5EEF9" fill-opacity=".14"/>
<rect x="1260" y="336" width="140" height="14" rx="7" fill="#E5EEF9" fill-opacity=".12"/>
<rect x="1260" y="582" width="120" height="14" rx="7" fill="#E5EEF9" fill-opacity=".14"/>
<rect x="1260" y="770" width="130" height="14" rx="7" fill="#E5EEF9" fill-opacity=".12"/>
</svg>
