<svg width="1600" height="1000" viewBox="0 0 1600 1000" fill="none" xmlns="http://www.w3.org/2000/svg">
<rect width="1600" height="1000" fill="#F8FAFC"/>
<rect x="96" y="88" width="1408" height="824" rx="36" fill="url(#paint0_linear_163_2)"/>
<rect x="184" y="236" width="510" height="34" rx="17" fill="#0F172A" fill-opacity=".18"/>
<rect x="184" y="292" width="560" height="20" rx="10" fill="#0F172A" fill-opacity=".10"/>
<rect x="184" y="326" width="510" height="20" rx="10" fill="#0F172A" fill-opacity=".10"/>
<rect x="184" y="398" width="200" height="56" rx="20" fill="#0F172A"/>
<rect x="432" y="398" width="180" height="56" rx="20" fill="#E2E8F0" fill-opacity=".6"/>
<rect x="922" y="206" width="430" height="500" rx="30" fill="white" fill-opacity=".64" stroke="#CBD5E1" stroke-width="2"/>
<rect x="964" y="252" width="178" height="16" rx="8" fill="#0F172A" fill-opacity=".10"/>
<rect x="964" y="294" width="346" height="188" rx="22" fill="#CBD5E1"/>
<rect x="964" y="520" width="220" height="16" rx="8" fill="#0F172A" fill-opacity=".10"/>
<rect x="964" y="554" width="300" height="14" rx="7" fill="#0F172A" fill-opacity=".08"/>
<rect x="184" y="586" width="540" height="180" rx="28" fill="white" fill-opacity=".56" stroke="#CBD5E1" stroke-width="2"/>
<rect x="224" y="626" width="182" height="16" rx="8" fill="#0F172A" fill-opacity=".10"/>
<rect x="224" y="666" width="420" height="14" rx="7" fill="#0F172A" fill-opacity=".08"/>
<rect x="224" y="694" width="392" height="14" rx="7" fill="#0F172A" fill-opacity=".08"/>
<defs>
<linearGradient id="paint0_linear_163_2" x1="96" y1="88" x2="1504" y2="912" gradientUnits="userSpaceOnUse">
<stop stop-color="#E0F2FE"/>
<stop offset="1" stop-color="#FCE7F3"/>
</linearGradient>
</defs>
</svg>
