<svg width="1600" height="1000" viewBox="0 0 1600 1000" fill="none" xmlns="http://www.w3.org/2000/svg">
<rect width="1600" height="1000" fill="#0F172A"/>
<rect x="100" y="72" width="300" height="24" rx="12" fill="#E2E8F0" fill-opacity=".14"/>
<rect x="100" y="118" width="520" height="18" rx="9" fill="#E2E8F0" fill-opacity=".1"/>
<rect x="100" y="176" width="1400" height="720" rx="28" fill="#111827"/>

<rect x="136" y="212" width="300" height="290" rx="22" fill="#1E293B"/>
<rect x="136" y="534" width="300" height="290" rx="22" fill="#1E293B"/>
<rect x="468" y="212" width="300" height="290" rx="22" fill="#1E293B"/>
<rect x="468" y="534" width="300" height="290" rx="22" fill="#1E293B"/>
<rect x="800" y="212" width="300" height="290" rx="22" fill="#1E293B"/>
<rect x="800" y="534" width="300" height="290" rx="22" fill="#1E293B"/>
<rect x="1132" y="212" width="300" height="290" rx="22" fill="#1E293B"/>
<rect x="1132" y="534" width="300" height="290" rx="22" fill="#1E293B"/>

<rect x="136" y="212" width="300" height="126" rx="22" fill="#334155"/>
<rect x="468" y="212" width="300" height="126" rx="22" fill="#475569"/>
<rect x="800" y="212" width="300" height="126" rx="22" fill="#334155"/>
<rect x="1132" y="212" width="300" height="126" rx="22" fill="#475569"/>
<rect x="136" y="534" width="300" height="126" rx="22" fill="#475569"/>
<rect x="468" y="534" width="300" height="126" rx="22" fill="#334155"/>
<rect x="800" y="534" width="300" height="126" rx="22" fill="#475569"/>
<rect x="1132" y="534" width="300" height="126" rx="22" fill="#334155"/>

<rect x="164" y="362" width="156" height="18" rx="9" fill="#E2E8F0" fill-opacity=".14"/>
<rect x="164" y="392" width="228" height="12" rx="6" fill="#E2E8F0" fill-opacity=".08"/>
<rect x="164" y="414" width="210" height="12" rx="6" fill="#E2E8F0" fill-opacity=".08"/>
<rect x="164" y="456" width="110" height="34" rx="12" fill="#38BDF8" fill-opacity=".8"/>

<rect x="496" y="362" width="170" height="18" rx="9" fill="#E2E8F0" fill-opacity=".14"/>
<rect x="496" y="392" width="226" height="12" rx="6" fill="#E2E8F0" fill-opacity=".08"/>
<rect x="496" y="414" width="180" height="12" rx="6" fill="#E2E8F0" fill-opacity=".08"/>
<rect x="496" y="456" width="110" height="34" rx="12" fill="#A78BFA" fill-opacity=".8"/>

<rect x="828" y="362" width="140" height="18" rx="9" fill="#E2E8F0" fill-opacity=".14"/>
<rect x="828" y="392" width="220" height="12" rx="6" fill="#E2E8F0" fill-opacity=".08"/>
<rect x="828" y="414" width="236" height="12" rx="6" fill="#E2E8F0" fill-opacity=".08"/>
<rect x="828" y="456" width="110" height="34" rx="12" fill="#34D399" fill-opacity=".8"/>

<rect x="1160" y="362" width="166" height="18" rx="9" fill="#E2E8F0" fill-opacity=".14"/>
<rect x="1160" y="392" width="206" height="12" rx="6" fill="#E2E8F0" fill-opacity=".08"/>
<rect x="1160" y="414" width="186" height="12" rx="6" fill="#E2E8F0" fill-opacity=".08"/>
<rect x="1160" y="456" width="110" height="34" rx="12" fill="#F59E0B" fill-opacity=".8"/>

<rect x="164" y="684" width="150" height="18" rx="9" fill="#E2E8F0" fill-opacity=".14"/>
<rect x="164" y="714" width="226" height="12" rx="6" fill="#E2E8F0" fill-opacity=".08"/>
<rect x="164" y="736" width="208" height="12" rx="6" fill="#E2E8F0" fill-opacity=".08"/>
<rect x="164" y="778" width="110" height="34" rx="12" fill="#38BDF8" fill-opacity=".8"/>

<rect x="496" y="684" width="162" height="18" rx="9" fill="#E2E8F0" fill-opacity=".14"/>
<rect x="496" y="714" width="228" height="12" rx="6" fill="#E2E8F0" fill-opacity=".08"/>
<rect x="496" y="736" width="198" height="12" rx="6" fill="#E2E8F0" fill-opacity=".08"/>
<rect x="496" y="778" width="110" height="34" rx="12" fill="#A78BFA" fill-opacity=".8"/>

<rect x="828" y="684" width="148" height="18" rx="9" fill="#E2E8F0" fill-opacity=".14"/>
<rect x="828" y="714" width="212" height="12" rx="6" fill="#E2E8F0" fill-opacity=".08"/>
<rect x="828" y="736" width="230" height="12" rx="6" fill="#E2E8F0" fill-opacity=".08"/>
<rect x="828" y="778" width="110" height="34" rx="12" fill="#34D399" fill-opacity=".8"/>

<rect x="1160" y="684" width="154" height="18" rx="9" fill="#E2E8F0" fill-opacity=".14"/>
<rect x="1160" y="714" width="218" height="12" rx="6" fill="#E2E8F0" fill-opacity=".08"/>
<rect x="1160" y="736" width="188" height="12" rx="6" fill="#E2E8F0" fill-opacity=".08"/>
<rect x="1160" y="778" width="110" height="34" rx="12" fill="#F59E0B" fill-opacity=".8"/>
</svg>
