<svg width="1600" height="1000" viewBox="0 0 1600 1000" fill="none" xmlns="http://www.w3.org/2000/svg">
<rect width="1600" height="1000" fill="#F8FAFC"/>
<rect x="96" y="48" width="1408" height="88" rx="24" fill="#0F172A"/>
<rect x="140" y="82" width="180" height="18" rx="9" fill="#E2E8F0" fill-opacity=".16"/>
<rect x="1210" y="80" width="92" height="22" rx="11" fill="#E2E8F0" fill-opacity=".10"/>
<rect x="1320" y="80" width="128" height="22" rx="11" fill="#38BDF8" fill-opacity=".35"/>
<rect x="176" y="182" width="280" height="16" rx="8" fill="#0F172A" fill-opacity=".12"/>
<rect x="176" y="224" width="720" height="36" rx="18" fill="#0F172A" fill-opacity=".18"/>
<rect x="176" y="278" width="240" height="16" rx="8" fill="#0F172A" fill-opacity=".10"/>
<rect x="176" y="334" width="848" height="280" rx="28" fill="#CBD5E1"/>
<rect x="176" y="656" width="720" height="18" rx="9" fill="#0F172A" fill-opacity=".12"/>
<rect x="176" y="694" width="720" height="18" rx="9" fill="#0F172A" fill-opacity=".08"/>
<rect x="176" y="732" width="680" height="18" rx="9" fill="#0F172A" fill-opacity=".08"/>
<rect x="176" y="796" width="620" height="18" rx="9" fill="#0F172A" fill-opacity=".12"/>
<rect x="176" y="834" width="720" height="18" rx="9" fill="#0F172A" fill-opacity=".08"/>
<rect x="176" y="872" width="664" height="18" rx="9" fill="#0F172A" fill-opacity=".08"/>
<rect x="1056" y="224" width="368" height="640" rx="28" fill="white" stroke="#CBD5E1" stroke-width="2"/>
<rect x="1098" y="266" width="182" height="18" rx="9" fill="#0F172A" fill-opacity=".16"/>
<rect x="1098" y="324" width="284" height="148" rx="20" fill="#F1F5F9"/>
<rect x="1126" y="354" width="190" height="14" rx="7" fill="#0F172A" fill-opacity=".10"/>
<rect x="1126" y="382" width="226" height="14" rx="7" fill="#0F172A" fill-opacity=".08"/>
<rect x="1098" y="518" width="284" height="18" rx="9" fill="#0F172A" fill-opacity=".10"/>
<rect x="1098" y="556" width="252" height="14" rx="7" fill="#0F172A" fill-opacity=".08"/>
<rect x="1098" y="584" width="230" height="14" rx="7" fill="#0F172A" fill-opacity=".08"/>
<rect x="1098" y="648" width="284" height="18" rx="9" fill="#0F172A" fill-opacity=".10"/>
<rect x="1098" y="686" width="252" height="14" rx="7" fill="#0F172A" fill-opacity=".08"/>
<rect x="1098" y="714" width="230" height="14" rx="7" fill="#0F172A" fill-opacity=".08"/>
<rect x="96" y="924" width="1408" height="44" rx="18" fill="#E2E8F0"/>
</svg>
