<svg width="1600" height="1000" viewBox="0 0 1600 1000" fill="none" xmlns="http://www.w3.org/2000/svg">
<rect width="1600" height="1000" fill="#F8FAFC"/>
<rect x="110" y="90" width="260" height="820" rx="28" fill="white" stroke="#CBD5E1" stroke-width="2"/>
<rect x="410" y="90" width="760" height="820" rx="28" fill="white" stroke="#CBD5E1" stroke-width="2"/>
<rect x="1210" y="90" width="280" height="820" rx="28" fill="#0F172A"/>
<rect x="150" y="150" width="120" height="18" rx="9" fill="#0F172A" fill-opacity=".14"/>
<rect x="150" y="224" width="180" height="46" rx="16" fill="#E0F2FE"/>
<rect x="150" y="286" width="180" height="46" rx="16" fill="#F8FAFC" stroke="#CBD5E1" stroke-width="2"/>
<rect x="150" y="348" width="180" height="46" rx="16" fill="#F8FAFC" stroke="#CBD5E1" stroke-width="2"/>
<rect x="450" y="146" width="240" height="22" rx="11" fill="#0F172A" fill-opacity=".14"/>
<rect x="450" y="228" width="680" height="180" rx="24" fill="#F8FAFC" stroke="#CBD5E1" stroke-width="2"/>
<rect x="450" y="448" width="680" height="180" rx="24" fill="#F8FAFC" stroke="#CBD5E1" stroke-width="2"/>
<rect x="450" y="668" width="680" height="180" rx="24" fill="#F1F5F9"/>
<rect x="1250" y="148" width="140" height="18" rx="9" fill="#E2E8F0" fill-opacity=".16"/>
<rect x="1250" y="226" width="200" height="18" rx="9" fill="#E2E8F0" fill-opacity=".12"/>
<rect x="1250" y="270" width="200" height="14" rx="7" fill="#E2E8F0" fill-opacity=".08"/>
<rect x="1250" y="330" width="200" height="18" rx="9" fill="#E2E8F0" fill-opacity=".12"/>
<rect x="1250" y="374" width="200" height="14" rx="7" fill="#E2E8F0" fill-opacity=".08"/>
<rect x="1250" y="770" width="180" height="52" rx="18" fill="#38BDF8"/>
</svg>
