<svg width="1600" height="1000" viewBox="0 0 1600 1000" fill="none" xmlns="http://www.w3.org/2000/svg">
<rect width="1600" height="1000" fill="#F8FAFC"/>
<text x="118" y="72" fill="#0F172A" font-family="Inter, Arial, sans-serif" font-size="32" font-weight="700">Workspace settings</text>
<text x="118" y="104" fill="#64748B" font-family="Inter, Arial, sans-serif" font-size="18">A realistic settings screen with section navigation, grouped form content, and a supporting summary panel.</text>

<rect x="110" y="140" width="270" height="760" rx="28" fill="white" stroke="#CBD5E1" stroke-width="2"/>
<text x="146" y="194" fill="#0F172A" font-family="Inter, Arial, sans-serif" font-size="18" font-weight="700">Settings</text>
<rect x="146" y="236" width="198" height="46" rx="16" fill="#E0F2FE"/>
<text x="170" y="265" fill="#0369A1" font-family="Inter, Arial, sans-serif" font-size="14" font-weight="700">General</text>
<rect x="146" y="296" width="198" height="46" rx="16" fill="#F8FAFC" stroke="#CBD5E1" stroke-width="2"/>
<text x="170" y="325" fill="#334155" font-family="Inter, Arial, sans-serif" font-size="14">Notifications</text>
<rect x="146" y="356" width="198" height="46" rx="16" fill="#F8FAFC" stroke="#CBD5E1" stroke-width="2"/>
<text x="170" y="385" fill="#334155" font-family="Inter, Arial, sans-serif" font-size="14">Members</text>
<rect x="146" y="416" width="198" height="46" rx="16" fill="#F8FAFC" stroke="#CBD5E1" stroke-width="2"/>
<text x="170" y="445" fill="#334155" font-family="Inter, Arial, sans-serif" font-size="14">Billing</text>

<rect x="410" y="140" width="780" height="760" rx="28" fill="white" stroke="#CBD5E1" stroke-width="2"/>
<text x="454" y="194" fill="#0F172A" font-family="Inter, Arial, sans-serif" font-size="22" font-weight="700">General workspace settings</text>
<text x="454" y="224" fill="#64748B" font-family="Inter, Arial, sans-serif" font-size="15">Grouped fields, supporting help text, and a clear save flow.</text>

<rect x="454" y="274" width="692" height="170" rx="24" fill="#F8FAFC" stroke="#E2E8F0" stroke-width="2"/>
<text x="490" y="320" fill="#0F172A" font-family="Inter, Arial, sans-serif" font-size="18" font-weight="700">Workspace details</text>
<text x="490" y="362" fill="#475569" font-family="Inter, Arial, sans-serif" font-size="14" font-weight="600">Workspace name</text>
<rect x="490" y="378" width="288" height="52" rx="14" fill="white" stroke="#CBD5E1" stroke-width="2"/>
<text x="514" y="410" fill="#0F172A" font-family="Inter, Arial, sans-serif" font-size="14">Northstar Product</text>
<text x="814" y="362" fill="#475569" font-family="Inter, Arial, sans-serif" font-size="14" font-weight="600">Default region</text>
<rect x="814" y="378" width="288" height="52" rx="14" fill="white" stroke="#CBD5E1" stroke-width="2"/>
<text x="838" y="410" fill="#0F172A" font-family="Inter, Arial, sans-serif" font-size="14">United States</text>

<rect x="454" y="472" width="692" height="202" rx="24" fill="#F8FAFC" stroke="#E2E8F0" stroke-width="2"/>
<text x="490" y="518" fill="#0F172A" font-family="Inter, Arial, sans-serif" font-size="18" font-weight="700">Notifications</text>
<rect x="490" y="556" width="612" height="50" rx="14" fill="white" stroke="#CBD5E1" stroke-width="2"/>
<text x="514" y="587" fill="#0F172A" font-family="Inter, Arial, sans-serif" font-size="14">Product updates</text>
<rect x="1038" y="568" width="44" height="24" rx="12" fill="#38BDF8"/>
<circle cx="1068" cy="580" r="8" fill="white"/>
<rect x="490" y="620" width="612" height="50" rx="14" fill="white" stroke="#CBD5E1" stroke-width="2"/>
<text x="514" y="651" fill="#0F172A" font-family="Inter, Arial, sans-serif" font-size="14">Security alerts</text>
<rect x="1038" y="632" width="44" height="24" rx="12" fill="#0F172A" fill-opacity=".15"/>
<circle cx="1052" cy="644" r="8" fill="white"/>

<rect x="454" y="716" width="692" height="126" rx="24" fill="#F1F5F9"/>
<text x="490" y="760" fill="#475569" font-family="Inter, Arial, sans-serif" font-size="14">Changes apply immediately to all team members.</text>
<rect x="878" y="770" width="108" height="48" rx="18" fill="#E2E8F0"/>
<text x="910" y="799" fill="#334155" font-family="Inter, Arial, sans-serif" font-size="14" font-weight="700">Cancel</text>
<rect x="1002" y="770" width="108" height="48" rx="18" fill="#0F172A"/>
<text x="1031" y="799" fill="#F8FAFC" font-family="Inter, Arial, sans-serif" font-size="14" font-weight="700">Save</text>

<rect x="1220" y="140" width="270" height="760" rx="28" fill="#0F172A"/>
<text x="1256" y="194" fill="#F8FAFC" font-family="Inter, Arial, sans-serif" font-size="18" font-weight="700">Summary</text>
<rect x="1256" y="236" width="198" height="180" rx="22" fill="#111827"/>
<text x="1284" y="280" fill="#94A3B8" font-family="Inter, Arial, sans-serif" font-size="13" font-weight="600">Plan</text>
<text x="1372" y="280" fill="#F8FAFC" font-family="Inter, Arial, sans-serif" font-size="13">Growth</text>
<text x="1284" y="326" fill="#94A3B8" font-family="Inter, Arial, sans-serif" font-size="13" font-weight="600">Members</text>
<text x="1372" y="326" fill="#F8FAFC" font-family="Inter, Arial, sans-serif" font-size="13">24 active</text>
<text x="1284" y="372" fill="#94A3B8" font-family="Inter, Arial, sans-serif" font-size="13" font-weight="600">Status</text>
<rect x="1368" y="354" width="74" height="26" rx="13" fill="#DCFCE7"/>
<text x="1388" y="371" fill="#166534" font-family="Inter, Arial, sans-serif" font-size="12" font-weight="700">Healthy</text>
</svg>
