<svg width="1600" height="1000" viewBox="0 0 1600 1000" fill="none" xmlns="http://www.w3.org/2000/svg">
<rect width="1600" height="1000" fill="#F8FAFC"/>
<rect x="88" y="56" width="1424" height="98" rx="24" fill="#111827"/>
<rect x="132" y="96" width="180" height="18" rx="9" fill="#E5E7EB" fill-opacity=".14"/>
<rect x="526" y="96" width="120" height="18" rx="9" fill="#E5E7EB" fill-opacity=".10"/>
<rect x="682" y="96" width="120" height="18" rx="9" fill="#E5E7EB" fill-opacity=".10"/>
<rect x="838" y="96" width="120" height="18" rx="9" fill="#7DD3FC" fill-opacity=".18"/>
<rect x="876" y="40" width="210" height="74" rx="18" fill="#0F172A"/>
<rect x="908" y="64" width="146" height="14" rx="7" fill="#E5E7EB" fill-opacity=".18"/>
<rect x="908" y="90" width="168" height="12" rx="6" fill="#E5E7EB" fill-opacity=".10"/>
<path d="M960 114L986 146H934L960 114Z" fill="#0F172A"/>
<rect x="132" y="212" width="1336" height="168" rx="28" fill="white" stroke="#CBD5E1" stroke-width="2"/>
<rect x="132" y="414" width="1336" height="168" rx="28" fill="white" stroke="#CBD5E1" stroke-width="2"/>
<rect x="132" y="616" width="1336" height="168" rx="28" fill="white" stroke="#CBD5E1" stroke-width="2"/>
<rect x="176" y="252" width="260" height="20" rx="10" fill="#0F172A" fill-opacity=".12"/>
<rect x="176" y="292" width="1120" height="16" rx="8" fill="#0F172A" fill-opacity=".08"/>
<rect x="176" y="326" width="1040" height="16" rx="8" fill="#0F172A" fill-opacity=".08"/>
<rect x="176" y="454" width="260" height="20" rx="10" fill="#0F172A" fill-opacity=".12"/>
<rect x="176" y="494" width="1120" height="16" rx="8" fill="#0F172A" fill-opacity=".08"/>
<rect x="176" y="528" width="1040" height="16" rx="8" fill="#0F172A" fill-opacity=".08"/>
<rect x="176" y="656" width="260" height="20" rx="10" fill="#0F172A" fill-opacity=".12"/>
<rect x="176" y="696" width="1120" height="16" rx="8" fill="#0F172A" fill-opacity=".08"/>
<rect x="176" y="730" width="1040" height="16" rx="8" fill="#0F172A" fill-opacity=".08"/>
</svg>
