<svg width="1600" height="1000" viewBox="0 0 1600 1000" fill="none" xmlns="http://www.w3.org/2000/svg">
<rect width="1600" height="1000" fill="#F8FAFC"/>
<rect x="110" y="110" width="880" height="360" rx="30" fill="white" stroke="#CBD5E1" stroke-width="2"/>
<rect x="170" y="166" width="240" height="18" rx="9" fill="#0F172A" fill-opacity=".14"/>
<rect x="170" y="226" width="760" height="44" rx="12" fill="#F1F5F9"/>
<rect x="170" y="286" width="760" height="44" rx="12" fill="#F8FAFC" stroke="#E2E8F0" stroke-width="2"/>
<rect x="170" y="346" width="760" height="44" rx="12" fill="#F8FAFC" stroke="#E2E8F0" stroke-width="2"/>
<rect x="1060" y="110" width="430" height="360" rx="30" fill="white" stroke="#CBD5E1" stroke-width="2"/>
<rect x="1108" y="166" width="190" height="18" rx="9" fill="#0F172A" fill-opacity=".14"/>
<rect x="1108" y="236" width="110" height="14" rx="7" fill="#0F172A" fill-opacity=".10"/>
<rect x="1270" y="236" width="150" height="14" rx="7" fill="#0F172A" fill-opacity=".08"/>
<rect x="1108" y="286" width="110" height="14" rx="7" fill="#0F172A" fill-opacity=".10"/>
<rect x="1270" y="286" width="120" height="14" rx="7" fill="#0F172A" fill-opacity=".08"/>
<rect x="110" y="540" width="1380" height="290" rx="30" fill="white" stroke="#CBD5E1" stroke-width="2"/>
<rect x="170" y="596" width="240" height="18" rx="9" fill="#0F172A" fill-opacity=".14"/>
<rect x="170" y="656" width="380" height="110" rx="22" fill="#F8FAFC" stroke="#CBD5E1" stroke-width="2"/>
<rect x="610" y="656" width="380" height="110" rx="22" fill="#F8FAFC" stroke="#CBD5E1" stroke-width="2"/>
<rect x="1050" y="656" width="380" height="110" rx="22" fill="#F8FAFC" stroke="#CBD5E1" stroke-width="2"/>
</svg>
