<svg width="1600" height="1000" viewBox="0 0 1600 1000" fill="none" xmlns="http://www.w3.org/2000/svg">
<rect width="1600" height="1000" fill="#F8FAFC"/>
<rect x="110" y="90" width="280" height="820" rx="28" fill="#111827"/>
<rect x="430" y="90" width="1060" height="820" rx="28" fill="white" stroke="#CBD5E1" stroke-width="2"/>
<rect x="150" y="140" width="120" height="18" rx="9" fill="#E5E7EB" fill-opacity=".14"/>
<rect x="150" y="212" width="200" height="52" rx="16" fill="#1F2937"/>
<rect x="150" y="284" width="200" height="52" rx="16" fill="#1F2937"/>
<rect x="150" y="356" width="200" height="52" rx="16" fill="#1F2937"/>
<rect x="150" y="428" width="200" height="52" rx="16" fill="#1F2937"/>
<rect x="150" y="520" width="200" height="300" rx="20" fill="#0B1220"/>
<rect x="480" y="138" width="220" height="24" rx="12" fill="#0F172A" fill-opacity=".14"/>
<rect x="480" y="210" width="960" height="170" rx="24" fill="#F1F5F9"/>
<rect x="520" y="252" width="280" height="18" rx="9" fill="#0F172A" fill-opacity=".12"/>
<rect x="520" y="286" width="360" height="18" rx="9" fill="#0F172A" fill-opacity=".08"/>
<rect x="480" y="428" width="300" height="18" rx="9" fill="#0F172A" fill-opacity=".12"/>
<rect x="480" y="474" width="300" height="170" rx="22" fill="#F8FAFC" stroke="#CBD5E1" stroke-width="2"/>
<rect x="810" y="474" width="300" height="170" rx="22" fill="#F8FAFC" stroke="#CBD5E1" stroke-width="2"/>
<rect x="1140" y="474" width="300" height="170" rx="22" fill="#F8FAFC" stroke="#CBD5E1" stroke-width="2"/>
<rect x="480" y="692" width="960" height="170" rx="24" fill="#F8FAFC" stroke="#CBD5E1" stroke-width="2"/>
</svg>
